<svg version="1" xmlns="http://www.w3.org/2000/svg" width="1333.333" height="1333.333" viewBox="0 0 1000.000000 1000.000000"><path d="M0 500v500h1000V0H0v500zm367-349.5c49.6 6 88.4 22.8 118.1 51.2 22.6 21.7 36.7 44.1 47.5 75.6 3.8 11.1 6.6 21.6 8.7 32.9l1.5 7.8H461.1l-1.1-4.3c-5.8-22.8-10.9-35.5-19.9-49.4-10.3-15.9-23.7-28.3-40.2-37.2-21.7-11.7-54.9-17.8-83.7-15.3-37.1 3.2-63.7 14.7-86.2 37.2-27.2 27.1-43 65.8-50.7 124-2 15.6-3 100.3-1.3 120.9 3 37.6 11.1 69.3 24.6 96.6 8.2 16.6 17.3 29.3 29.9 42 20.1 20.3 42 32.1 71.1 38.5 38.4 8.3 93.9 2.3 125.9-13.7 15.9-8 30.8-20.7 32-27.4.3-1.9.5-29.5.3-61.4-.2-47.6-.5-58.4-1.7-60.1-3.3-5-1.8-4.9-63.3-5.2l-57.8-.3V445h123V337h86.3c81.5 0 104.2.6 121.7 3 80.5 11.3 144.4 55.2 180.8 124 18.4 34.7 28.4 70.2 32.3 113.6 1.6 19 .6 93.1-1.5 108.4-8.5 61.7-31.1 111.6-68.1 149.9-37.8 39.2-85.6 62.6-146.5 71.7-10.1 1.6-23.1 1.8-108.2 2.1l-96.8.4v-96.5c0-53.2-.1-96.6-.3-96.6-.2 0-4.3 1.4-9.3 3-33.2 11.4-61.9 15.9-105.6 16.7-37.1.7-54.1-.9-78.9-7.2-62.6-16-112.9-56.4-142.2-114.2-18.6-36.6-28.2-73.4-31.8-121.2-1.6-21.6-.6-103.9 1.5-122.1 8.1-69.9 30-121.6 68-160.9 37.2-38.4 83.8-58.5 145.1-62.5 11.4-.7 46 .4 58.5 1.9z"/><path d="M549 403.8c-1.9 1.9-3 4.3-3.5 7.3-.3 2.4-.5 100-.3 216.9.3 230.9-.1 215.1 5.7 218.2 3.3 1.8 81.9 1.7 97.1-.1 83.2-9.9 133.4-61.7 148.4-153.1 3.2-19.7 4-32.8 4-69.5-.1-47.7-2.1-67.5-9.9-97.9-17-66.3-59.1-108.3-120.5-120.5-18.5-3.6-26.6-4.1-72.8-4.1h-45.4l-2.8 2.8z"/></svg>